<?xml version="1.0" standalone="no"?><!DOCTYPE svg PUBLIC "-//W3C//DTD SVG 1.1//EN" "http://www.w3.org/Graphics/SVG/1.1/DTD/svg11.dtd"><svg t="1655285287183" class="icon" viewBox="0 0 1024 1024" version="1.1" xmlns="http://www.w3.org/2000/svg" p-id="2818" xmlns:xlink="http://www.w3.org/1999/xlink" width="200" height="200"><defs><style type="text/css"></style></defs><path d="M42.672 522.664h511.984v85.324H42.672z" fill="#48CFAD" p-id="2819"></path><path d="M0.016 437.324H512v85.34H0.016z" fill="#A0D468" p-id="2820"></path><path d="M42.672 352.012h511.984v85.31H42.672z" fill="#ED5564" p-id="2821"></path><path d="M0.016 266.672H512v85.34H0.016z" fill="#5D9CEC" p-id="2822"></path><path d="M42.672 181.332h511.984v85.342H42.672z" fill="#A0D468" p-id="2823"></path><path d="M0.016 607.988H512v85.312H0.016z" fill="#ED5564" p-id="2824"></path><path d="M42.672 693.3h511.984v85.372H42.672z" fill="#FFCE54" p-id="2825"></path><path d="M746.648 288.014c-152.902 0-277.302 124.402-277.302 277.29 0 152.93 124.4 277.364 277.302 277.364 152.934 0 277.336-124.434 277.336-277.364 0-152.888-124.402-277.29-277.336-277.29z" fill="#967ADC" p-id="2826"></path><path d="M746.648 245.33c-152.902 0-277.302 124.402-277.302 277.334 0 152.886 124.4 277.32 277.302 277.32 152.934 0 277.336-124.434 277.336-277.32 0-152.932-124.402-277.334-277.336-277.334z" fill="#AC92EB" p-id="2827"></path><path d="M996.766 402.886a277.666 277.666 0 0 0-21.406-36.906l-170.434 98.404 98.406-170.432a277.666 277.666 0 0 0-36.906-21.406l-98.434 170.496v-196.9a283 283 0 0 0-21.344-0.812c-7.156 0-14.282 0.282-21.312 0.812v196.9l-98.434-170.496a278.924 278.924 0 0 0-36.906 21.406l98.402 170.432-170.43-98.404a276.08 276.08 0 0 0-21.406 36.906l170.464 98.434h-196.87c-0.562 7.062-0.812 14.156-0.812 21.342s0.25 14.282 0.812 21.328l196.87-0.016-170.464 98.45a273.324 273.324 0 0 0 21.406 36.876l170.398-98.376-98.372 170.434a272.06 272.06 0 0 0 36.906 21.376l98.434-170.496v196.934c7.032 0.562 14.156 0.812 21.312 0.812 7.188 0 14.312-0.25 21.344-0.812V602.3l98.434 170.434a273.686 273.686 0 0 0 36.906-21.376l-98.376-170.434 170.402 98.438c8.032-11.75 15.218-24.062 21.406-36.938l-170.496-98.45h196.902c0.532-7.032 0.812-14.156 0.812-21.312 0-7.188-0.282-14.312-0.812-21.342h-196.902l170.5-98.434z m-228.774 82.81v-15.844l13.75 7.906-13.75 7.938z" fill="#967ADC" p-id="2828"></path><path d="M959.984 522.664c0 117.824-95.496 213.32-213.336 213.32-117.808 0-213.304-95.496-213.304-213.32 0-117.808 95.496-213.336 213.304-213.336 117.84 0 213.336 95.528 213.336 213.336z" fill="#E6E9ED" p-id="2829"></path><path d="M895.988 522.664c0 82.45-66.844 149.324-149.34 149.324-82.464 0-149.308-66.876-149.308-149.324 0-82.466 66.844-149.338 149.308-149.338 82.496 0 149.34 66.872 149.34 149.338z" fill="#AC92EB" p-id="2830"></path><path d="M746.648 576.426l-53.03 27.874 10.124-59.058-42.902-41.858 59.308-8.626 26.5-53.716 26.532 53.716 59.308 8.626-42.902 41.858 10.124 59.058z" fill="#967ADC" p-id="2831"></path></svg>